Coordinates
version=1
nRows=10
nColumns=23
inDegrees=yes

Units are S.I. units (second, meters, Newtons, ...)
If the header above contains a line with 'inDegrees', this indicates whether rotational values are in degrees (yes) or radians (no).

endheader
time	pelvis_tilt	pelvis_list	pelvis_rotation	pelvis_tx	pelvis_ty	pelvis_tz	hip_flexion_r	hip_adduction_r	hip_rotation_r	knee_angle_r	knee_angle_r_beta	ankle_angle_r	subtalar_angle_r	mtp_angle_r	hip_flexion_l	hip_adduction_l	hip_rotation_l	knee_angle_l	knee_angle_l_beta	ankle_angle_l	subtalar_angle_l	mtp_angle_l
     22.50000000	     -4.32461330	      2.07211123	      5.33214141	      2.15266523	      1.04355309	      0.98615465	     32.46761640	     -5.05964459	      0.65908826	     92.64507965	      1.61696168	      0.22719207	    -23.64267569	      0.00000000	      2.69012461	      5.93102211	      4.57413399	     31.17534989	      0.54411250	     16.48264477	     -4.19785086	      0.00000000
     22.50666667	     -3.82484328	      1.29764544	      5.13629748	      2.15445329	      1.04983664	      0.98655151	     32.33629620	     -4.11783778	     -0.01435367	     90.07531120	      1.57211076	      0.92607661	    -23.70436439	      0.00000000	      0.34319876	      4.76049568	      4.00699598	     29.45017050	      0.51400244	     13.92036010	     -4.10171217	      0.00000000
     22.51333333	     -3.44319786	      0.60118861	      4.92687974	      2.15635213	      1.05594682	      0.98689946	     32.23028281	     -3.28512505	     -0.65520087	     87.35803651	      1.52468537	      1.63373380	    -23.68773482	      0.00000000	     -1.82143398	      3.71841476	      3.36730191	     27.77122303	      0.48469928	     11.07403156	     -4.07723662	      0.00000000
     22.52000000	     -3.20367796	      0.02897376	      4.67935270	      2.15832832	      1.06177989	      0.98727547	     32.18866884	     -2.57807746	     -1.20579727	     84.52201408	      1.47518744	      2.31867298	    -23.62681384	      0.00000000	     -3.78055758	      2.85129472	      2.64214310	     26.15177778	      0.45643463	      8.02118764	     -4.07452337	      0.00000000
     22.52666667	     -2.99385005	     -0.54191182	      4.46321903	      2.16038353	      1.06751976	      0.98762043	     32.05721315	     -1.90558878	     -1.80894571	     81.50305108	      1.42249659	      2.98290335	    -23.44102172	      0.00000000	     -5.61147431	      2.01551559	      1.93027354	     24.65656900	      0.43033831	      4.84523960	     -4.11453162	      0.00000000
     22.53333333	     -3.03016009	     -0.89883078	      4.16250624	      2.16239534	      1.07263639	      0.98802855	     32.13889653	     -1.42379623	     -2.22786514	     78.44568997	      1.36913557	      3.58716438	    -23.17164999	      0.00000000	     -7.08573234	      1.45490821	      1.09696333	     23.32310298	      0.40706494	      1.59927350	     -4.10404860	      0.00000000
     22.54000000	     -3.09139040	     -1.23819772	      3.88580318	      2.16444992	      1.07758525	      0.98841930	     32.12811713	     -0.97639269	     -2.68409078	     75.21695054	      1.31278344	      4.15050486	    -22.76514118	      0.00000000	     -8.42118422	      0.94413730	      0.34936007	     22.16448706	      0.38684328	     -1.63064305	     -4.12273613	      0.00000000
     22.54666667	     -3.85638948	     -1.17014854	      3.42184544	      2.16603869	      1.08104600	      0.98904897	     32.94236980	     -0.88150201	     -2.77419906	     72.13099665	      1.25892338	      4.72800686	    -22.17371474	      0.00000000	     -8.75004172	      0.88973844	     -0.81161310	     21.51009792	      0.37542203	     -4.65513488	     -3.83912646	      0.00000000
     22.55333333	     -3.70890884	     -1.44786251	      3.19066960	      2.16811956	      1.08580899	      0.98935115	     32.46296682	     -0.50013824	     -3.28323382	     68.56141951	      1.19662251	      5.18854048	    -21.46596407	      0.00000000	    -10.13379595	      0.50814729	     -1.24689162	     20.61175950	      0.35974307	     -7.72772475	     -4.15051754	      0.00000000
     22.56000000	     -4.29370499	     -1.29516183	      2.73556345	      2.16958146	      1.08893992	      0.99002171	     32.86996962	     -0.43036921	     -3.35097667	     65.15858418	      1.13723183	      5.70094067	    -20.45017110	      0.00000000	    -10.44338202	      0.58346905	     -2.14598633	     20.30479117	      0.35438546	    -10.44405895	     -4.09424340	      0.00000000
